<svg width="400" height="400" viewBox="0 0 400 400" fill="none" xmlns="http://www.w3.org/2000/svg">
<path fill-rule="evenodd" clip-rule="evenodd" d="M332.313 235.895C332.313 309.533 272.626 369.227 198.982 369.227C125.344 369.227 65.6506 309.539 65.6506 235.895C65.6506 162.258 125.338 102.564 198.982 102.564C272.619 102.564 332.313 162.252 332.313 235.895ZM198.982 343.583C258.457 343.583 306.669 295.37 306.669 235.895C306.669 176.42 258.463 128.208 198.982 128.208C139.501 128.208 91.2943 176.414 91.2943 235.895C91.2943 295.377 139.501 343.583 198.982 343.583Z" fill="#F76F53"/>
<path fill-rule="evenodd" clip-rule="evenodd" d="M394.579 200C394.579 310.456 306.92 400 198.789 400C90.6586 400 3 310.456 3 200C3 89.5437 90.6586 0 198.789 0C306.92 0 394.579 89.5437 394.579 200ZM198.789 364.1C287.513 364.1 359.435 290.631 359.435 200C359.435 109.369 287.513 35.9 198.789 35.9C110.066 35.9 38.1442 109.369 38.1442 200C38.1442 290.631 110.066 364.1 198.789 364.1Z" fill="#F76F53"/>
<path fill-rule="evenodd" clip-rule="evenodd" d="M200.407 256.414C242.888 256.414 277.332 221.977 277.332 179.489C277.332 137.008 242.894 102.564 200.407 102.564C157.926 102.564 123.482 137.002 123.482 179.489C123.482 221.97 157.919 256.414 200.407 256.414ZM261.944 179.489C261.944 213.477 234.394 241.027 200.407 241.027C166.419 241.027 138.869 213.477 138.869 179.489C138.869 145.502 166.419 117.952 200.407 117.952C234.394 117.952 261.944 145.502 261.944 179.489Z" fill="#F76F53"/>
<ellipse cx="200" cy="179.5" rx="77" ry="77.5" fill="#F76F53"/>
<path d="M144.318 222V213.239L179.159 164.352H144.25V152.182H197.705V160.943L162.83 209.83H197.773V222H144.318ZM209.099 222V152.182H236.645C241.94 152.182 246.452 153.193 250.179 155.216C253.906 157.216 256.747 160 258.702 163.568C260.679 167.114 261.668 171.205 261.668 175.841C261.668 180.477 260.668 184.568 258.668 188.114C256.668 191.659 253.77 194.42 249.974 196.398C246.202 198.375 241.634 199.364 236.27 199.364H218.713V187.534H233.884C236.724 187.534 239.065 187.045 240.906 186.068C242.77 185.068 244.156 183.693 245.065 181.943C245.997 180.17 246.463 178.136 246.463 175.841C246.463 173.523 245.997 171.5 245.065 169.773C244.156 168.023 242.77 166.67 240.906 165.716C239.043 164.739 236.679 164.25 233.815 164.25H223.861V222H209.099Z" fill="#0E0E10"/>
</svg>
